<svg width="38" height="38" viewBox="0 0 38 38" fill="none" xmlns="http://www.w3.org/2000/svg">
<g clip-path="url(#clip0_136_686)">
<path d="M34.2 3.8H32.3V1.9C32.3 0.76 31.54 0 30.4 0C29.26 0 28.5 0.76 28.5 1.9V3.8H9.5V1.9C9.5 0.76 8.74 0 7.6 0C6.46 0 5.7 0.76 5.7 1.9V3.8H1.9C0.95 3.8 0 4.56 0 5.7V32.3C0 33.44 0.95 34.2 1.9 34.2H13.49C12.16 31.92 11.4 29.26 11.4 26.6C11.4 18.24 18.24 11.4 26.6 11.4C30.21 11.4 33.44 12.73 36.1 14.82V5.7C36.1 4.75 35.15 3.8 34.2 3.8Z" fill="#014DF5"/>
<path d="M26.6 15.2C20.33 15.2 15.2 20.33 15.2 26.6C15.2 32.87 20.33 38 26.6 38C32.87 38 38 32.87 38 26.6C38 20.33 32.87 15.2 26.6 15.2ZM30.4 28.5H26.6C25.46 28.5 24.7 27.74 24.7 26.6V20.9C24.7 19.76 25.46 19 26.6 19C27.74 19 28.5 19.76 28.5 20.9V24.7H30.4C31.54 24.7 32.3 25.46 32.3 26.6C32.3 27.74 31.54 28.5 30.4 28.5Z" fill="#014DF5"/>
</g>
<defs>
<clipPath id="clip0_136_686">
<rect width="38" height="38" fill="white"/>
</clipPath>
</defs>
</svg>
