<svg width="48" height="48" viewBox="0 0 48 48" fill="none" xmlns="http://www.w3.org/2000/svg">
<g clip-path="url(#clip0_136_657)">
<path d="M18.5165 20.9633C18.5165 22.0143 18.8137 22.9977 19.3294 23.833L26.6587 18.3552H18.5165V20.9633Z" fill="#014DF5"/>
<path d="M29.4834 14.1103C29.4834 14.0784 29.4572 14.0531 29.4262 14.0531H18.5737C18.5428 14.0531 18.5165 14.0784 18.5165 14.1103V15.5428H29.4834V14.1103Z" fill="#014DF5"/>
<path d="M29.4834 20.9635V19.756L21.405 25.7925C22.1784 26.2097 23.0616 26.4469 24 26.4469C27.0234 26.4469 29.4834 23.9869 29.4834 20.9635Z" fill="#014DF5"/>
<path d="M15.7041 20.9634V14.1103C15.7041 12.5278 16.9922 11.2406 18.5738 11.2406H29.4263C31.0078 11.2406 32.2959 12.5278 32.2959 14.1103V14.1431L41.3269 7.39313C41.2097 7.27031 41.0906 7.14938 40.9706 7.02938C36.4378 2.49656 30.4106 0 24 0C17.5894 0 11.5622 2.49656 7.02938 7.02938C2.49656 11.5622 0 17.5894 0 24C0 28.2497 1.09688 32.3306 3.1575 35.9194L17.0709 25.5206C16.2075 24.2119 15.7041 22.6453 15.7041 20.9634Z" fill="#014DF5"/>
<path d="M43.1568 9.53625L32.2959 17.6541V20.9634C32.2959 25.0584 29.3128 28.47 25.4062 29.1403V33.6056H29.0147C29.7909 33.6056 30.4209 34.2356 30.4209 35.0119C30.4209 35.7881 29.7909 36.4181 29.0147 36.4181H18.9853C18.209 36.4181 17.579 35.7881 17.579 35.0119C17.579 34.2356 18.209 33.6056 18.9853 33.6056H22.5937V29.1403C21.2643 28.9116 20.0418 28.3669 19.0078 27.585L4.70154 38.2762C5.40373 39.2212 6.18091 40.1222 7.02935 40.9706C11.5622 45.5034 17.5893 48 24 48C30.4106 48 36.4378 45.5034 40.9706 40.9706C45.5034 36.4369 48 30.4106 48 24C48 18.7088 46.2993 13.6791 43.1568 9.53625Z" fill="#014DF5"/>
</g>
<defs>
<clipPath id="clip0_136_657">
<rect width="48" height="48" fill="white"/>
</clipPath>
</defs>
</svg>
