<svg width="98" height="73" viewBox="0 0 98 73" fill="none" xmlns="http://www.w3.org/2000/svg">
<g clip-path="url(#clip0_2103_7676)">
<path d="M32.6247 44.1288H25.0205C24.1857 44.1238 23.5044 44.7968 23.4994 45.6323V49.52L23.2287 49.2518L20.2979 43.4564C19.6041 42.0826 17.4163 42.5945 17.4163 44.1288V52.9633L16.0047 58.5459L13.1092 62.8391C12.8857 63.1709 12.8045 63.5782 12.8838 63.9698C12.9631 64.3621 13.1961 64.7058 13.531 64.9243C14.2299 65.3845 15.1686 65.1988 15.6402 64.5075L18.6817 59.9971C18.7781 59.8535 18.8492 59.6949 18.892 59.528L19.7615 56.0898L21.9789 58.2821V63.6733C21.9884 64.5062 22.6664 65.1761 23.4994 65.1761C24.333 65.1761 25.0104 64.5062 25.0205 63.6733V57.6594C25.0199 57.2596 24.8593 56.8768 24.5747 56.5967L20.4578 52.527V50.4978L20.6184 50.8151C20.6914 50.9593 20.7877 51.0915 20.9036 51.2054L23.9445 54.2117C24.2329 54.4925 24.6182 54.6506 25.0205 54.6525H32.6247C33.4596 54.6575 34.1408 53.9845 34.1458 53.149V45.6323C34.1408 44.7968 33.4596 44.1238 32.6247 44.1288ZM31.1036 51.6455H26.5416V47.1357H31.1036V51.6455Z" fill="#5A5A5A"/>
<path d="M21.9789 38.1148C21.9789 36.454 20.6171 35.1079 18.9374 35.1079C17.2576 35.1079 15.8958 36.454 15.8958 38.1148C15.8958 39.7757 17.2576 41.1218 18.9374 41.1218C20.6171 41.1218 21.9789 39.7757 21.9789 38.1148Z" fill="#5A5A5A"/>
<path d="M41.9163 41.1218H48V47.1357H41.9163V41.1218Z" fill="#5A5A5A"/>
<path d="M61.6874 50.1421H41.616L39.2499 60.6664H71.958L69.5926 50.1421H61.6874ZM66.2501 59.1629H44.9578C44.417 59.1692 43.914 58.884 43.6414 58.4162C43.3694 57.9484 43.3694 57.3705 43.6414 56.9027C43.914 56.4349 44.417 56.1497 44.9578 56.156H66.2501C66.7909 56.1497 67.2939 56.4349 67.5666 56.9027C67.8385 57.3705 67.8385 57.9484 67.5666 58.4162C67.2939 58.884 66.7909 59.1692 66.2501 59.1629ZM66.2501 54.6525H44.9578C44.417 54.6588 43.914 54.3736 43.6414 53.9058C43.3694 53.438 43.3694 52.8601 43.6414 52.3923C43.914 51.9251 44.417 51.6399 44.9578 51.6456H66.2501C66.7909 51.6399 67.2939 51.9251 67.5666 52.3923C67.8385 52.8601 67.8385 53.438 67.5666 53.9058C67.2939 54.3736 66.7909 54.6588 66.2501 54.6525Z" fill="#5A5A5A"/>
<path d="M40.3958 38.1149H42.6227L37.3542 32.9056V47.1357H38.8747V39.6184C38.8797 38.7829 39.5603 38.1099 40.3958 38.1149Z" fill="#5A5A5A"/>
<path d="M39.5043 30.7796L45.957 37.1592L47.033 36.0952L40.5796 29.7168L39.5043 30.7796Z" fill="#5A5A5A"/>
<path d="M64.729 30.5975H69.2917V35.108H64.729V30.5975Z" fill="#5A5A5A"/>
<path d="M37.3542 28.6541L39.5043 26.5279C40.1011 25.9405 41.0588 25.9405 41.655 26.5279L50.259 35.0325C50.5436 35.3126 50.7041 35.6954 50.7041 36.0952C50.7041 36.495 50.5436 36.8778 50.259 37.1586L49.2913 38.115H49.5205C50.356 38.1099 51.0366 38.783 51.0416 39.6184V47.1358H60.1663V36.6115C60.1714 35.776 60.8526 35.103 61.6874 35.108V29.0941C61.6925 28.2593 62.3731 27.5863 63.2085 27.5907H70.8121C71.6476 27.5863 72.3282 28.2593 72.3332 29.0941V35.108H73.8543V14.0601H37.3542V28.6541Z" fill="#5A5A5A"/>
<path d="M37.3542 8.04614H73.8543V11.0531H37.3542V8.04614Z" fill="#5A5A5A"/>
<path d="M63.2085 38.1149V47.1357H73.8543V38.1149H63.2085ZM72.3332 41.1218C72.3282 41.9567 71.6476 42.6297 70.8121 42.6253H66.2501C65.7086 42.6316 65.2056 42.3464 64.9336 41.8786C64.661 41.4108 64.661 40.8328 64.9336 40.365C65.2056 39.8972 65.7086 39.612 66.2501 39.6183H70.8121C71.6476 39.6133 72.3282 40.2863 72.3332 41.1218Z" fill="#5A5A5A"/>
</g>
<path d="M77.3753 35.0208H84.9795C85.8144 35.0157 86.4956 35.6888 86.5006 36.5242V40.412L86.7713 40.1438L89.7021 34.3484C90.3959 32.9746 92.5838 33.4864 92.5838 35.0208V43.8552L93.9953 49.4378L96.8908 53.7311C97.1143 54.0629 97.1955 54.4702 97.1162 54.8618C97.0369 55.254 96.8039 55.5978 96.469 55.8163C95.7701 56.2765 94.8314 56.0908 94.3598 55.3995L91.3183 50.8891C91.2219 50.7455 91.1508 50.5869 91.108 50.42L90.2385 46.9818L88.0211 49.174V54.5653C88.0116 55.3982 87.3336 56.0681 86.5006 56.0681C85.667 56.0681 84.9896 55.3982 84.9795 54.5653V48.5514C84.9802 48.1516 85.1407 47.7688 85.4253 47.4886L89.5422 43.4189V41.3897L89.3816 41.7071C89.3086 41.8512 89.2123 41.9834 89.0964 42.0974L86.0555 45.1037C85.7671 45.3845 85.3818 45.5425 84.9795 45.5444H77.3753C76.5404 45.5495 75.8592 44.8764 75.8542 44.041V36.5242C75.8592 35.6888 76.5404 35.0157 77.3753 35.0208ZM78.8964 42.5375H83.4584V38.0277H78.8964V42.5375Z" fill="#5A5A5A"/>
<path d="M88.0211 29.0071C88.0211 27.3462 89.3829 26.0001 91.0627 26.0001C92.7424 26.0001 94.1043 27.3462 94.1043 29.0071C94.1043 30.6679 92.7424 32.014 91.0627 32.014C89.3829 32.014 88.0211 30.6679 88.0211 29.0071Z" fill="#5A5A5A"/>
<defs>
<clipPath id="clip0_2103_7676">
<rect width="73" height="73" fill="white" transform="translate(0.854126)"/>
</clipPath>
</defs>
</svg>
