<svg width="72" height="72" viewBox="0 0 72 72" fill="none" xmlns="http://www.w3.org/2000/svg">
<rect width="72" height="72" rx="36" fill="#014DF5"/>
<g clip-path="url(#clip0_163_134)">
<path fill-rule="evenodd" clip-rule="evenodd" d="M50.5674 48.9107C50.5674 48.9107 52.6872 48.9107 52.6872 46.7857C52.6872 44.6607 50.5674 38.2857 42.0883 38.2857C33.6091 38.2857 31.4893 44.6607 31.4893 46.7857C31.4893 48.9107 33.6091 48.9107 33.6091 48.9107H50.5674ZM33.6557 46.7857H50.5208C50.5307 46.7846 50.5406 46.7831 50.5505 46.7815L50.5674 46.7772C50.5632 46.2162 50.2134 44.5885 48.9564 43.1222C47.7863 41.7474 45.7301 40.4107 42.0883 40.4107C38.4486 40.4107 36.3924 41.7495 35.2202 43.1222C33.9631 44.5885 33.6112 46.2184 33.6091 46.7772C33.6246 46.7802 33.6402 46.7831 33.6557 46.7857ZM42.0883 34.0357C43.2127 34.0357 44.291 33.588 45.0861 32.791C45.8812 31.9939 46.3279 30.9129 46.3279 29.7858C46.3279 28.6586 45.8812 27.5776 45.0861 26.7806C44.291 25.9835 43.2127 25.5358 42.0883 25.5358C40.9639 25.5358 39.8855 25.9835 39.0904 26.7806C38.2954 27.5776 37.8487 28.6586 37.8487 29.7858C37.8487 30.9129 38.2954 31.9939 39.0904 32.791C39.8855 33.588 40.9639 34.0357 42.0883 34.0357ZM48.4477 29.7858C48.4477 30.6229 48.2832 31.4519 47.9636 32.2254C47.644 32.9988 47.1756 33.7016 46.585 34.2936C45.9945 34.8855 45.2935 35.3551 44.5219 35.6755C43.7503 35.9959 42.9234 36.1607 42.0883 36.1607C41.2532 36.1607 40.4262 35.9959 39.6546 35.6755C38.8831 35.3551 38.182 34.8855 37.5915 34.2936C37.001 33.7016 36.5326 32.9988 36.213 32.2254C35.8934 31.4519 35.7289 30.6229 35.7289 29.7858C35.7289 28.095 36.3989 26.4735 37.5915 25.278C38.7841 24.0824 40.4017 23.4108 42.0883 23.4108C43.7749 23.4108 45.3924 24.0824 46.585 25.278C47.7776 26.4735 48.4476 28.095 48.4477 29.7858ZM33.4734 38.8807C32.6255 38.6131 31.7514 38.4371 30.8661 38.3559C30.3687 38.3084 29.8692 38.285 29.3695 38.2857C20.8904 38.2857 18.7706 44.6607 18.7706 46.7857C18.7706 48.2031 19.4765 48.9107 20.8904 48.9107H29.8274C29.5132 48.2473 29.3564 47.52 29.3695 46.7857C29.3695 44.6395 30.1687 42.4465 31.6801 40.6147C32.1952 39.99 32.7951 39.4056 33.4734 38.8807ZM29.1999 40.4107C25.6641 40.4532 23.6567 41.7707 22.5014 43.1222C21.2359 44.597 20.8904 46.2311 20.8904 46.7857H27.2497C27.2497 44.5651 27.9344 42.353 29.1999 40.4107ZM21.9503 30.8483C21.9503 29.1575 22.6203 27.536 23.8129 26.3405C25.0055 25.1449 26.623 24.4733 28.3096 24.4733C29.9962 24.4733 31.6138 25.1449 32.8064 26.3405C33.999 27.536 34.669 29.1575 34.669 30.8483C34.669 32.539 33.999 34.1605 32.8064 35.3561C31.6138 36.5516 29.9962 37.2232 28.3096 37.2232C26.623 37.2232 25.0055 36.5516 23.8129 35.3561C22.6203 34.1605 21.9503 32.539 21.9503 30.8483ZM28.3096 26.5983C27.1852 26.5983 26.1069 27.046 25.3118 27.8431C24.5167 28.6401 24.07 29.7211 24.07 30.8483C24.07 31.9754 24.5167 33.0564 25.3118 33.8535C26.1069 34.6505 27.1852 35.0982 28.3096 35.0982C29.434 35.0982 30.5124 34.6505 31.3075 33.8535C32.1025 33.0564 32.5492 31.9754 32.5492 30.8483C32.5492 29.7211 32.1025 28.6401 31.3075 27.8431C30.5124 27.046 29.434 26.5983 28.3096 26.5983Z" fill="white"/>
</g>
<defs>
<clipPath id="clip0_163_134">
<rect width="33" height="27" fill="white" transform="translate(19 22.5)"/>
</clipPath>
</defs>
</svg>
